<svg xmlns="http://www.w3.org/2000/svg" viewBox="0 0 45 45" fill="#3a3a3a" stroke="#0a0a0a" stroke-width="1.4" stroke-linejoin="round" stroke-linecap="round">
<circle cx="9"   cy="8"  r="1.7"/>
<circle cx="16"  cy="6"  r="1.7"/>
<circle cx="22.5" cy="5" r="1.8"/>
<circle cx="29"  cy="6"  r="1.7"/>
<circle cx="36"  cy="8"  r="1.7"/>
<path d="M 9 9
         L 12 18
         L 16 8
         L 19 18
         L 22.5 7
         L 26 18
         L 29 8
         L 33 18
         L 36 9
         L 35 22
         L 10 22
         Z"/>
<path d="M 11 22 H34 V25 H11 Z"/>
<path d="M 12 25 H33 L35 35 H10 Z"/>
<path d="M 9 35 H36 L38 38 H7 Z"/>
<path d="M 6 38 H39 V41 H6 Z"/>
<path d="M7 41 H38 V44 H7 Z" />
</svg>
