<svg xmlns="http://www.w3.org/2000/svg" viewBox="0 0 45 45" fill="#f8f8f8" stroke="#1a1a1a" stroke-width="1.4" stroke-linejoin="round" stroke-linecap="round">
<path d="M 12 38
         C 10 32 8 22 14 16
         C 17 12 22 8 28 9
         L 33 13
         L 36 19
         L 37 22
         L 35 24
         L 30 24
         C 27 25 25 27 24 30
         L 24 38
         Z"/>
<path d="M 22 8 L 19 3 L 18 10 Z"/>
<circle cx="29" cy="16" r="1.2" fill="#0a0a0a" stroke="none"/>
<path d="M 13 18 Q 11 24 13 30" fill="none" stroke-width="1.3"/>
<path d="M 16 21 Q 14 26 15 30" fill="none" stroke-width="1.1"/>
<path d="M 11 38 H24 L26 41 H9 Z"/>
<path d="M7 41 H38 V44 H7 Z" />
</svg>
